<svg width="178" height="167" viewBox="0 0 178 167" fill="none" xmlns="http://www.w3.org/2000/svg">
<path d="M0 20.875C0 15.3386 2.34419 10.029 6.51687 6.11415C10.6896 2.19932 16.3489 0 22.25 0L155.75 0C161.651 0 167.31 2.19932 171.483 6.11415C175.656 10.029 178 15.3386 178 20.875V146.125C178 151.661 175.656 156.971 171.483 160.886C167.31 164.801 161.651 167 155.75 167H22.25C16.3489 167 10.6896 164.801 6.51687 160.886C2.34419 156.971 0 151.661 0 146.125V20.875ZM166.875 41.75H122.375V73.0625H166.875V41.75ZM166.875 83.5H122.375V114.812H166.875V83.5ZM166.875 125.25H122.375V156.562H155.75C158.701 156.562 161.53 155.463 163.617 153.505C165.703 151.548 166.875 148.893 166.875 146.125V125.25ZM111.25 156.562V125.25H66.75V156.562H111.25ZM55.625 156.562V125.25H11.125V146.125C11.125 148.893 12.2971 151.548 14.3834 153.505C16.4698 155.463 19.2995 156.562 22.25 156.562H55.625ZM11.125 114.812H55.625V83.5H11.125V114.812ZM11.125 73.0625H55.625V41.75H11.125V73.0625ZM66.75 41.75V73.0625H111.25V41.75H66.75ZM111.25 83.5H66.75V114.812H111.25V83.5Z" fill="white"/>
</svg>
