<?xml version="1.0" encoding="utf-8"?>
<!-- Generator: Adobe Illustrator 24.1.0, SVG Export Plug-In . SVG Version: 6.00 Build 0)  -->
<svg version="1.1" id="visual" xmlns="http://www.w3.org/2000/svg" xmlns:xlink="http://www.w3.org/1999/xlink" x="0px" y="0px"
	 viewBox="0 0 1920 1080" style="enable-background:new 0 0 1920 1080;" xml:space="preserve">
<style type="text/css">
	.st0{fill:#FFDBD5;}
	.st1{fill:#F99186;}
	.st2{fill:#EF6A61;}
</style>
<path class="st0" d="M1039.7,1080H0V415.9c107.1,39.6,229.2,34.9,333.5,80.6c98.1,43,169.2,125.1,249,194
	c150.5,129.9,343.3,221.6,453.3,383.8C1037.1,1076.2,1038.4,1078.1,1039.7,1080z"/>
<path class="st1" d="M692.2,1080H0V606c10.4,5.5,21,10.5,31.9,14.8c66.5,26,142.5,22.8,207.4,52.5C300,701,344,754,393.3,798.5
	c93,83.8,212.2,143,280.3,247.5C680.6,1056.7,686.9,1068.1,692.2,1080z"/>
<path class="st2" d="M388.3,1080H0V785.1c3.4,1.4,6.8,2.9,10,4.8c5.5,3.3,11,6.8,16.5,10.2c11.1,6.8,22.3,13.6,34.6,18.4
	c32,12.5,68.6,11,99.9,25.3c29.2,13.3,50.4,38.9,74.2,60.3c44.8,40.4,102.2,68.9,135,119.2C381.1,1040,388.6,1060.5,388.3,1080z"/>
</svg>
