<svg width="250" height="53" viewBox="0 0 250 53" fill="none" xmlns="http://www.w3.org/2000/svg">
<path d="M3.70756 35.9345V0.486917H15.5126C19.6019 0.486917 22.7036 1.31468 24.8177 2.97019C26.9318 4.60948 27.9889 7.01972 27.9889 10.2009C27.9889 11.9376 27.5645 13.4714 26.7158 14.8023C25.8671 16.117 24.6866 17.0827 23.1743 17.6994C24.9026 18.1539 26.2606 19.0709 27.2482 20.4505C28.2512 21.8301 28.7527 23.5181 28.7527 25.5145C28.7527 28.9229 27.7188 31.5035 25.651 33.2564C23.5832 35.0093 20.6358 35.902 16.8088 35.9345H3.70756ZM10.6517 20.4992V30.0671H16.6005C18.2362 30.0671 19.5093 29.6614 20.4198 28.8498C21.3457 28.0221 21.8086 26.8859 21.8086 25.4414C21.8086 22.1953 20.2114 20.5479 17.0171 20.4992H10.6517ZM10.6517 15.3379H15.7903C19.2933 15.273 21.0447 13.8041 21.0447 10.9313C21.0447 9.32446 20.5972 8.17209 19.7022 7.47418C18.8226 6.76003 17.4261 6.40296 15.5126 6.40296H10.6517V15.3379Z" fill="black"/>
<path d="M53.0109 28.6307H40.8355L38.5208 35.9345H31.1369L43.6826 0.486917H50.1175L62.7327 35.9345H55.3487L53.0109 28.6307ZM42.7104 22.7147H51.136L46.9001 9.44619L42.7104 22.7147Z" fill="black"/>
<path d="M78.357 22.9581H72.8248V35.9345H65.8807V0.486917H78.4033C82.3846 0.486917 85.4554 1.42017 87.6158 3.28669C89.7762 5.15321 90.8564 7.79067 90.8564 11.1991C90.8564 13.6174 90.3549 15.6382 89.3518 17.2612C88.3642 18.868 86.8597 20.1503 84.8382 21.1079L92.1295 35.5936V35.9345H84.6761L78.357 22.9581ZM72.8248 17.0421H78.4264C80.1702 17.0421 81.5204 16.5795 82.4771 15.6544C83.4339 14.713 83.9123 13.4227 83.9123 11.7834C83.9123 10.1116 83.457 8.79697 82.5466 7.83937C81.6516 6.88176 80.2705 6.40296 78.4033 6.40296H72.8248V17.0421Z" fill="black"/>
<path d="M115.184 28.6307H103.009L100.694 35.9345H93.31L105.856 0.486917H112.291L124.906 35.9345H117.522L115.184 28.6307ZM104.884 22.7147H113.309L109.073 9.44619L104.884 22.7147Z" fill="black"/>
<path d="M155.46 35.9345H148.516L134.998 12.6112V35.9345H128.054V0.486917H134.998L148.539 23.8589V0.486917H155.46V35.9345Z" fill="black"/>
<path d="M188.19 31.4548C186.94 33.0292 185.173 34.2546 182.889 35.1311C180.605 35.9913 178.075 36.4214 175.297 36.4214C172.38 36.4214 169.819 35.7559 167.612 34.425C165.421 33.0779 163.723 31.1302 162.52 28.582C161.332 26.0338 160.722 23.0393 160.691 19.5984V17.1882C160.691 13.6499 161.254 10.5904 162.381 8.00979C163.523 5.4129 165.159 3.43277 167.288 2.0694C169.433 0.689799 171.941 0 174.811 0C178.808 0 181.933 1.0063 184.186 3.01889C186.438 5.01525 187.773 7.92863 188.19 11.759H181.431C181.122 9.73023 180.436 8.24513 179.371 7.30376C178.322 6.36238 176.871 5.8917 175.019 5.8917C172.658 5.8917 170.861 6.82495 169.626 8.69147C168.391 10.558 167.766 13.3334 167.751 17.0178V19.2819C167.751 22.9987 168.422 25.8066 169.765 27.7056C171.107 29.6046 173.075 30.554 175.667 30.554C178.275 30.554 180.135 29.9697 181.246 28.8011V22.6903H174.927V17.3099H188.19V31.4548Z" fill="black"/>
<path d="M212.865 28.6307H200.689L198.375 35.9345H190.991L203.536 0.486917H209.971L222.587 35.9345H215.203L212.865 28.6307ZM202.564 22.7147H210.99L206.754 9.44619L202.564 22.7147Z" fill="black"/>
<path d="M233.882 16.4578L240.896 0.486917H248.488L237.424 23.0799V35.9345H230.364V23.0799L219.3 0.486917H226.915L233.882 16.4578Z" fill="black"/>
<path d="M3.31837 42.0424C4.543 42.0424 5.47926 42.3997 6.12713 43.1144C6.7829 43.829 7.11079 44.8429 7.11079 46.1558C7.11079 47.4688 6.7829 48.4827 6.12713 49.1973C5.47926 49.912 4.543 50.2693 3.31837 50.2693H0V42.0424H3.31837ZM3.1169 48.6489C3.78057 48.6489 4.26252 48.4411 4.56276 48.0256C4.87089 47.6018 5.02496 46.9785 5.02496 46.1558C5.02496 45.3332 4.87089 44.7141 4.56276 44.2985C4.26252 43.8747 3.78057 43.6628 3.1169 43.6628H2.03843V48.6489H3.1169Z" fill="black"/>
<path d="M7.16245 50.2693L9.91196 42.0424H12.3533L15.091 50.2693H12.9933L12.46 48.412H9.75789L9.21273 50.2693H7.16245ZM10.7771 44.9717L10.1845 46.9536H12.0333L11.4645 44.9841L11.1208 43.6878H11.0971L10.7771 44.9717Z" fill="black"/>
<path d="M19.082 42.0424C20.3066 42.0424 21.2429 42.3997 21.8908 43.1144C22.5465 43.829 22.8744 44.8429 22.8744 46.1558C22.8744 47.4688 22.5465 48.4827 21.8908 49.1973C21.2429 49.912 20.3066 50.2693 19.082 50.2693H15.7636V42.0424H19.082ZM18.8805 48.6489C19.5442 48.6489 20.0262 48.4411 20.3264 48.0256C20.6345 47.6018 20.7886 46.9785 20.7886 46.1558C20.7886 45.3332 20.6345 44.7141 20.3264 44.2985C20.0262 43.8747 19.5442 43.6628 18.8805 43.6628H17.8021V48.6489H18.8805Z" fill="black"/>
<path d="M26.0716 42.0424V50.2693H24.0332V42.0424H26.0716Z" fill="black"/>
<path d="M26.7514 50.2693L29.5009 42.0424H31.9423L34.6799 50.2693H32.5822L32.0489 48.412H29.3468L28.8017 50.2693H26.7514ZM30.366 44.9717L29.7735 46.9536H31.6223L31.0534 44.9841L30.7097 43.6878H30.686L30.366 44.9717Z" fill="black"/>
<path d="M42.4041 42.0424V50.2693H40.1405L37.711 45.8193L37.1184 44.5977H37.1066L37.154 46.1184V50.2693H35.3526V42.0424H37.6162L40.0457 46.4924L40.6383 47.714H40.6501L40.6027 46.1932V42.0424H42.4041Z" fill="black"/>
<path d="M47.1353 50.394C46.44 50.394 45.8198 50.2319 45.2746 49.9078C44.7374 49.5837 44.3186 49.1059 44.0184 48.4743C43.7181 47.8428 43.568 47.0741 43.568 46.1683C43.568 45.2874 43.726 44.5312 44.0421 43.8997C44.3581 43.2598 44.8085 42.7695 45.3931 42.4288C45.9857 42.0881 46.681 41.9177 47.479 41.9177C48.3718 41.9177 49.0868 42.0881 49.6241 42.4288C50.1692 42.7612 50.5919 43.293 50.8921 44.0243L49.0078 44.8096C48.9051 44.3858 48.7233 44.0783 48.4626 43.8872C48.2019 43.6961 47.878 43.6005 47.4908 43.6005C46.9061 43.6005 46.4518 43.8207 46.1279 44.2612C45.8119 44.6933 45.6539 45.3248 45.6539 46.1558C45.6539 47.0367 45.8158 47.6932 46.1398 48.1253C46.4637 48.5491 46.9496 48.761 47.5975 48.761C48.0478 48.761 48.4231 48.6489 48.7234 48.4245C49.0236 48.2001 49.1737 47.8552 49.1737 47.3899V47.2652H47.3841V45.8318H50.904V50.2693H49.5174L49.4344 49.2596C49.2132 49.6253 48.909 49.9078 48.5219 50.1073C48.1426 50.2984 47.6804 50.394 47.1353 50.394Z" fill="black"/>
<path d="M51.4095 50.2693L54.159 42.0424H56.6004L59.3381 50.2693H57.2404L56.7071 48.412H54.005L53.4598 50.2693H51.4095ZM55.0242 44.9717L54.4316 46.9536H56.2804L55.7115 44.9841L55.3679 43.6878H55.3442L55.0242 44.9717Z" fill="black"/>
<path d="M63.0336 41.9177C63.7605 41.9177 64.4005 42.0382 64.9535 42.2792C65.5145 42.5119 66.0004 42.8568 66.4113 43.3138L65.4276 44.6974C65.0879 44.3235 64.7205 44.0451 64.3254 43.8623C63.9383 43.6711 63.4958 43.5756 62.9981 43.5756C62.5635 43.5756 62.2514 43.6504 62.0618 43.7999C61.8722 43.9495 61.7774 44.1323 61.7774 44.3484C61.7774 44.5229 61.8524 44.6725 62.0026 44.7972C62.1606 44.9135 62.4134 45.0132 62.761 45.0963L64.0765 45.4079C64.8587 45.5991 65.4315 45.8775 65.795 46.2431C66.1584 46.6087 66.3401 47.0949 66.3401 47.7015C66.3401 48.2832 66.1979 48.7777 65.9135 49.1849C65.6291 49.5837 65.238 49.8871 64.7402 50.0948C64.2425 50.2943 63.6736 50.394 63.0336 50.394C62.2435 50.394 61.5206 50.261 60.8648 49.9951C60.2091 49.7209 59.6876 49.3635 59.3005 48.9231L60.2841 47.4896C60.5765 47.8469 60.9715 48.1461 61.4693 48.3871C61.967 48.6198 62.4806 48.7361 63.0099 48.7361C63.8316 48.7361 64.2425 48.4827 64.2425 47.9757C64.2425 47.8012 64.1793 47.6558 64.0528 47.5395C63.9343 47.4148 63.7131 47.3109 63.3892 47.2278L61.9433 46.8913C61.5009 46.7916 61.1058 46.6503 60.7582 46.4675C60.4184 46.2847 60.1498 46.0437 59.9523 45.7445C59.7548 45.437 59.656 45.0548 59.656 44.5977C59.656 44.0825 59.7903 43.6254 60.0589 43.2266C60.3276 42.8194 60.7147 42.4994 61.2204 42.2667C61.726 42.0341 62.3305 41.9177 63.0336 41.9177Z" fill="black"/>
<path d="M77.5831 42.0424V50.2693H75.3195L72.8899 45.8193L72.2974 44.5977H72.2855L72.3329 46.1184V50.2693H70.5315V42.0424H72.7951L75.2246 46.4924L75.8172 47.714H75.8291L75.7817 46.1932V42.0424H77.5831Z" fill="black"/>
<path d="M82.5868 41.9177C83.3769 41.9177 84.0564 42.0881 84.6253 42.4288C85.202 42.7612 85.6445 43.2432 85.9526 43.8747C86.2607 44.5063 86.4148 45.2667 86.4148 46.1558C86.4148 47.045 86.2607 47.8054 85.9526 48.437C85.6445 49.0685 85.202 49.5547 84.6253 49.8954C84.0564 50.2278 83.3769 50.394 82.5868 50.394C81.7888 50.394 81.1015 50.2278 80.5247 49.8954C79.9558 49.5547 79.5173 49.0685 79.2092 48.437C78.9011 47.8054 78.747 47.045 78.747 46.1558C78.747 45.2667 78.9011 44.5063 79.2092 43.8747C79.5173 43.2432 79.9558 42.7612 80.5247 42.4288C81.1015 42.0881 81.7888 41.9177 82.5868 41.9177ZM82.5868 43.6005C82.018 43.6005 81.5834 43.8166 81.2832 44.2487C80.9829 44.6725 80.8328 45.3082 80.8328 46.1558C80.8328 47.0035 80.9829 47.6433 81.2832 48.0755C81.5834 48.4993 82.018 48.7112 82.5868 48.7112C83.1478 48.7112 83.5784 48.4993 83.8786 48.0755C84.1788 47.6433 84.329 47.0035 84.329 46.1558C84.329 45.3082 84.1788 44.6725 83.8786 44.2487C83.5784 43.8166 83.1478 43.6005 82.5868 43.6005Z" fill="black"/>
<path d="M91.313 42.0424C92.2453 42.0424 92.9682 42.2709 93.4818 42.728C94.0033 43.185 94.264 43.7999 94.264 44.5728C94.264 45.1877 94.1257 45.6946 93.8492 46.0935C93.5806 46.4841 93.1934 46.7708 92.6877 46.9536L94.7262 50.2693H92.4744L90.8034 47.2652H89.5827V50.2693H87.5798V42.0424H91.313ZM91.0286 45.7445C91.4236 45.7445 91.7199 45.6614 91.9174 45.4952C92.1149 45.329 92.2137 45.0631 92.2137 44.6974C92.2137 44.0077 91.8187 43.6628 91.0286 43.6628H89.5827V45.7445H91.0286Z" fill="black"/>
<path d="M101.999 42.0424V43.7002H99.4506V50.2693H97.4122V43.7002H94.8523V42.0424H101.999Z" fill="black"/>
<path d="M104.965 42.0424V45.2958H107.952V42.0424H109.99V50.2693H107.952V46.9536H104.965V50.2693H102.927V42.0424H104.965Z" fill="black"/>
<path d="M112.303 48.1253C112.738 48.1253 113.058 48.2791 113.263 48.5865C113.477 48.894 113.583 49.2513 113.583 49.6585C113.583 50.0325 113.504 50.3898 113.346 50.7305C113.196 51.0795 112.995 51.3829 112.742 51.6405C112.497 51.9064 112.228 52.1058 111.936 52.2388L111.118 51.6031C111.442 51.4618 111.731 51.2707 111.983 51.0297C112.244 50.797 112.426 50.5477 112.529 50.2818L112.469 50.2444C112.422 50.2776 112.367 50.3026 112.303 50.3192C112.248 50.3358 112.169 50.3441 112.066 50.3441C111.853 50.3441 111.64 50.261 111.426 50.0948C111.221 49.9286 111.118 49.671 111.118 49.322C111.118 48.9314 111.237 48.6364 111.474 48.437C111.719 48.2292 111.995 48.1253 112.303 48.1253Z" fill="black"/>
<path d="M121.075 50.394C120.38 50.394 119.76 50.2319 119.215 49.9078C118.678 49.5837 118.259 49.1059 117.959 48.4743C117.658 47.8428 117.508 47.0741 117.508 46.1683C117.508 45.2874 117.666 44.5312 117.982 43.8997C118.298 43.2598 118.749 42.7695 119.333 42.4288C119.926 42.0881 120.621 41.9177 121.419 41.9177C122.312 41.9177 123.027 42.0881 123.564 42.4288C124.109 42.7612 124.532 43.293 124.832 44.0243L122.948 44.8096C122.845 44.3858 122.664 44.0783 122.403 43.8872C122.142 43.6961 121.818 43.6005 121.431 43.6005C120.846 43.6005 120.392 43.8207 120.068 44.2612C119.752 44.6933 119.594 45.3248 119.594 46.1558C119.594 47.0367 119.756 47.6932 120.08 48.1253C120.404 48.5491 120.89 48.761 121.538 48.761C121.988 48.761 122.363 48.6489 122.664 48.4245C122.964 48.2001 123.114 47.8552 123.114 47.3899V47.2652H121.324V45.8318H124.844V50.2693H123.458L123.375 49.2596C123.153 49.6253 122.849 49.9078 122.462 50.1073C122.083 50.2984 121.621 50.394 121.075 50.394Z" fill="black"/>
<path d="M126.167 50.2693V42.0424H132.259V43.7002H128.206V45.3705H131.429V46.9287H128.206V48.6115H132.413V50.2693H126.167Z" fill="black"/>
<path d="M140.458 42.0424V50.2693H138.195L135.765 45.8193L135.173 44.5977H135.161L135.208 46.1184V50.2693H133.407V42.0424H135.671L138.1 46.4924L138.693 47.714H138.704L138.657 46.1932V42.0424H140.458Z" fill="black"/>
<path d="M141.954 50.2693V42.0424H148.046V43.7002H143.993V45.3705H147.216V46.9287H143.993V48.6115H148.2V50.2693H141.954Z" fill="black"/>
<path d="M152.927 42.0424C153.859 42.0424 154.582 42.2709 155.096 42.728C155.617 43.185 155.878 43.7999 155.878 44.5728C155.878 45.1877 155.74 45.6946 155.463 46.0935C155.194 46.4841 154.807 46.7708 154.302 46.9536L156.34 50.2693H154.088L152.417 47.2652H151.197V50.2693H149.194V42.0424H152.927ZM152.642 45.7445C153.037 45.7445 153.334 45.6614 153.531 45.4952C153.729 45.329 153.828 45.0631 153.828 44.6974C153.828 44.0077 153.433 43.6628 152.642 43.6628H151.197V45.7445H152.642Z" fill="black"/>
<path d="M156.31 50.2693L159.059 42.0424H161.501L164.238 50.2693H162.141L161.607 48.412H158.905L158.36 50.2693H156.31ZM159.925 44.9717L159.332 46.9536H161.181L160.612 44.9841L160.268 43.6878H160.245L159.925 44.9717Z" fill="black"/>
<path d="M166.949 48.6115H170.872V50.2693H164.911V42.0424H166.949V48.6115Z" fill="black"/>
<path d="M177.737 41.9177C178.464 41.9177 179.104 42.0382 179.657 42.2792C180.218 42.5119 180.704 42.8568 181.115 43.3138L180.131 44.6974C179.791 44.3235 179.424 44.0451 179.029 43.8623C178.642 43.6711 178.199 43.5756 177.702 43.5756C177.267 43.5756 176.955 43.6504 176.765 43.7999C176.576 43.9495 176.481 44.1323 176.481 44.3484C176.481 44.5229 176.556 44.6725 176.706 44.7972C176.864 44.9135 177.117 45.0132 177.465 45.0963L178.78 45.4079C179.562 45.5991 180.135 45.8775 180.499 46.2431C180.862 46.6087 181.044 47.0949 181.044 47.7015C181.044 48.2832 180.902 48.7777 180.617 49.1849C180.333 49.5837 179.942 49.8871 179.444 50.0948C178.946 50.2943 178.377 50.394 177.737 50.394C176.947 50.394 176.224 50.261 175.568 49.9951C174.913 49.7209 174.391 49.3635 174.004 48.9231L174.988 47.4896C175.28 47.8469 175.675 48.1461 176.173 48.3871C176.671 48.6198 177.184 48.7361 177.714 48.7361C178.535 48.7361 178.946 48.4827 178.946 47.9757C178.946 47.8012 178.883 47.6558 178.756 47.5395C178.638 47.4148 178.417 47.3109 178.093 47.2278L176.647 46.8913C176.204 46.7916 175.809 46.6503 175.462 46.4675C175.122 46.2847 174.853 46.0437 174.656 45.7445C174.458 45.437 174.36 45.0548 174.36 44.5977C174.36 44.0825 174.494 43.6254 174.763 43.2266C175.031 42.8194 175.418 42.4994 175.924 42.2667C176.43 42.0341 177.034 41.9177 177.737 41.9177Z" fill="black"/>
<path d="M181.217 50.2693L183.967 42.0424H186.408L189.146 50.2693H187.048L186.515 48.412H183.813L183.267 50.2693H181.217ZM184.832 44.9717L184.239 46.9536H186.088L185.519 44.9841L185.175 43.6878H185.152L184.832 44.9717Z" fill="black"/>
<path d="M196.87 42.0424V50.2693H194.606L192.177 45.8193L191.584 44.5977H191.572L191.62 46.1184V50.2693H189.818V42.0424H192.082L194.511 46.4924L195.104 47.714H195.116L195.068 46.1932V42.0424H196.87Z" fill="black"/>
<path d="M204.943 42.0424V43.7002H202.395V50.2693H200.357V43.7002H197.797V42.0424H204.943Z" fill="black"/>
<path d="M209.055 41.9177C209.845 41.9177 210.525 42.0881 211.094 42.4288C211.67 42.7612 212.113 43.2432 212.421 43.8747C212.729 44.5063 212.883 45.2667 212.883 46.1558C212.883 47.045 212.729 47.8054 212.421 48.437C212.113 49.0685 211.67 49.5547 211.094 49.8954C210.525 50.2278 209.845 50.394 209.055 50.394C208.257 50.394 207.57 50.2278 206.993 49.8954C206.424 49.5547 205.986 49.0685 205.678 48.437C205.369 47.8054 205.215 47.045 205.215 46.1558C205.215 45.2667 205.369 44.5063 205.678 43.8747C205.986 43.2432 206.424 42.7612 206.993 42.4288C207.57 42.0881 208.257 41.9177 209.055 41.9177ZM209.055 43.6005C208.486 43.6005 208.052 43.8166 207.752 44.2487C207.451 44.6725 207.301 45.3082 207.301 46.1558C207.301 47.0035 207.451 47.6433 207.752 48.0755C208.052 48.4993 208.486 48.7112 209.055 48.7112C209.616 48.7112 210.047 48.4993 210.347 48.0755C210.647 47.6433 210.797 47.0035 210.797 46.1558C210.797 45.3082 210.647 44.6725 210.347 44.2487C210.047 43.8166 209.616 43.6005 209.055 43.6005Z" fill="black"/>
<path d="M217.036 41.9177C217.763 41.9177 218.403 42.0382 218.956 42.2792C219.517 42.5119 220.003 42.8568 220.414 43.3138L219.43 44.6974C219.091 44.3235 218.723 44.0451 218.328 43.8623C217.941 43.6711 217.499 43.5756 217.001 43.5756C216.566 43.5756 216.254 43.6504 216.065 43.7999C215.875 43.9495 215.78 44.1323 215.78 44.3484C215.78 44.5229 215.855 44.6725 216.005 44.7972C216.163 44.9135 216.416 45.0132 216.764 45.0963L218.079 45.4079C218.861 45.5991 219.434 45.8775 219.798 46.2431C220.161 46.6087 220.343 47.0949 220.343 47.7015C220.343 48.2832 220.201 48.7777 219.916 49.1849C219.632 49.5837 219.241 49.8871 218.743 50.0948C218.245 50.2943 217.676 50.394 217.036 50.394C216.246 50.394 215.523 50.261 214.868 49.9951C214.212 49.7209 213.69 49.3635 213.303 48.9231L214.287 47.4896C214.579 47.8469 214.974 48.1461 215.472 48.3871C215.97 48.6198 216.483 48.7361 217.013 48.7361C217.834 48.7361 218.245 48.4827 218.245 47.9757C218.245 47.8012 218.182 47.6558 218.056 47.5395C217.937 47.4148 217.716 47.3109 217.392 47.2278L215.946 46.8913C215.504 46.7916 215.109 46.6503 214.761 46.4675C214.421 46.2847 214.153 46.0437 213.955 45.7445C213.758 45.437 213.659 45.0548 213.659 44.5977C213.659 44.0825 213.793 43.6254 214.062 43.2266C214.33 42.8194 214.717 42.4994 215.223 42.2667C215.729 42.0341 216.333 41.9177 217.036 41.9177Z" fill="black"/>
<path d="M231.467 47.9134C231.238 48.7777 230.815 49.4092 230.199 49.8081C229.591 50.1987 228.872 50.394 228.042 50.394C227.244 50.394 226.557 50.2278 225.98 49.8954C225.411 49.5547 224.973 49.0685 224.665 48.437C224.357 47.8054 224.202 47.045 224.202 46.1558C224.202 45.2667 224.357 44.5063 224.665 43.8747C224.973 43.2432 225.411 42.7612 225.98 42.4288C226.557 42.0881 227.24 41.9177 228.03 41.9177C228.844 41.9177 229.555 42.1005 230.164 42.4662C230.772 42.8318 231.175 43.4052 231.372 44.1864L229.583 44.9467C229.472 44.4398 229.291 44.0908 229.038 43.8997C228.793 43.7002 228.481 43.6005 228.102 43.6005C227.533 43.6005 227.086 43.8166 226.762 44.2487C226.446 44.6808 226.288 45.3165 226.288 46.1558C226.288 46.9952 226.438 47.6309 226.739 48.063C227.047 48.4951 227.505 48.7112 228.113 48.7112C228.493 48.7112 228.813 48.6032 229.073 48.3871C229.342 48.1627 229.524 47.822 229.618 47.365L231.467 47.9134Z" fill="black"/>
<path d="M234.402 42.0424V50.2693H232.364V42.0424H234.402Z" fill="black"/>
<path d="M242.477 42.0424V43.7002H239.929V50.2693H237.891V43.7002H235.331V42.0424H242.477Z" fill="black"/>
<path d="M250 42.0424L247.239 47.2652V50.2693H245.2V47.2652L242.439 42.0424H244.548L245.651 44.2985L246.231 45.6697L246.824 44.2985L247.926 42.0424H250Z" fill="black"/>
</svg>
