<svg width="244" height="223" viewBox="0 0 244 223" fill="none" xmlns="http://www.w3.org/2000/svg">
<path d="M220 0H195.6C192.364 0 189.261 1.17473 186.973 3.26576C184.685 5.35679 183.4 8.19284 183.4 11.15V200.611H232.2V11.15C232.2 8.19284 230.915 5.35679 228.627 3.26576C226.339 1.17473 223.236 0 220 0ZM146.8 66.9H122.4C119.164 66.9 116.061 68.0747 113.773 70.1658C111.485 72.2568 110.2 75.0928 110.2 78.05V200.611H159V78.05C159 75.0928 157.715 72.2568 155.427 70.1658C153.139 68.0747 150.036 66.9 146.8 66.9ZM73.6 133.8H49.2C45.9644 133.8 42.8612 134.975 40.5733 137.066C38.2854 139.157 37 141.993 37 144.95V200.611H85.8V144.95C85.8 141.993 84.5146 139.157 82.2267 137.066C79.9388 134.975 76.8356 133.8 73.6 133.8Z" fill="white"/>
</svg>
