<svg width="438" height="72" viewBox="0 0 438 72" fill="none" xmlns="http://www.w3.org/2000/svg">
<path d="M26.0983 46L9.84228 26.096V46H0.882283V1.32799H9.84228V21.36L26.0983 1.32799H36.9143L18.4823 23.472L37.4263 46H26.0983Z" fill="black"/>
<path d="M68.7918 37.488H50.9998L48.0558 46H38.6478L54.7118 1.26398H65.1438L81.2078 46H71.7358L68.7918 37.488ZM66.3598 30.32L59.8958 11.632L53.4318 30.32H66.3598Z" fill="black"/>
<path d="M117.868 15.152C117.868 17.5413 117.292 19.7813 116.14 21.872C115.031 23.9627 113.26 25.648 110.828 26.928C108.439 28.208 105.41 28.848 101.74 28.848H94.2523V46H85.2923V1.32799H101.74C105.196 1.32799 108.14 1.92532 110.572 3.11999C113.004 4.31465 114.818 5.95732 116.012 8.04799C117.25 10.1387 117.868 12.5067 117.868 15.152ZM101.356 21.616C103.831 21.616 105.666 21.0613 106.86 19.952C108.055 18.8 108.652 17.2 108.652 15.152C108.652 10.8 106.22 8.62399 101.356 8.62399H94.2523V21.616H101.356Z" fill="black"/>
<path d="M131.27 1.32799V46H122.31V1.32799H131.27Z" fill="black"/>
<path d="M168.602 1.32799V8.55999H156.698V46H147.738V8.55999H135.834V1.32799H168.602Z" fill="black"/>
<path d="M200.612 37.488H182.82L179.876 46H170.468L186.532 1.26398H196.964L213.028 46H203.556L200.612 37.488ZM198.18 30.32L191.716 11.632L185.252 30.32H198.18Z" fill="black"/>
<path d="M255.32 46H246.36L226.072 15.344V46H217.112V1.26398H226.072L246.36 31.984V1.26398H255.32V46Z" fill="black"/>
<path d="M300.929 23.088C303.446 23.5573 305.515 24.816 307.137 26.864C308.758 28.912 309.569 31.2587 309.569 33.904C309.569 36.2933 308.971 38.4053 307.777 40.24C306.625 42.032 304.939 43.44 302.721 44.464C300.502 45.488 297.878 46 294.849 46H275.585V1.32799H294.017C297.046 1.32799 299.649 1.81865 301.825 2.79999C304.043 3.78132 305.707 5.14665 306.817 6.89599C307.969 8.64532 308.545 10.6293 308.545 12.848C308.545 15.4507 307.841 17.6267 306.433 19.376C305.067 21.1253 303.233 22.3627 300.929 23.088ZM284.545 19.76H292.737C294.87 19.76 296.513 19.2907 297.665 18.352C298.817 17.3707 299.393 15.984 299.393 14.192C299.393 12.4 298.817 11.0133 297.665 10.032C296.513 9.05065 294.87 8.55999 292.737 8.55999H284.545V19.76ZM293.569 38.704C295.745 38.704 297.43 38.192 298.625 37.168C299.862 36.144 300.481 34.6933 300.481 32.816C300.481 30.896 299.841 29.4027 298.561 28.336C297.281 27.2267 295.553 26.672 293.377 26.672H284.545V38.704H293.569Z" fill="black"/>
<path d="M342.182 37.488H324.39L321.446 46H312.038L328.102 1.26398H338.534L354.598 46H345.126L342.182 37.488ZM339.75 30.32L333.286 11.632L326.822 30.32H339.75Z" fill="black"/>
<path d="M389.082 1.32799V8.55999H377.178V46H368.218V8.55999H356.314V1.32799H389.082Z" fill="black"/>
<path d="M414.436 46.448C410.254 46.448 406.414 45.4667 402.916 43.504C399.417 41.5413 396.644 38.832 394.596 35.376C392.548 31.8773 391.524 27.9307 391.524 23.536C391.524 19.184 392.548 15.28 394.596 11.824C396.644 8.32532 399.417 5.59465 402.916 3.63198C406.414 1.66932 410.254 0.687988 414.436 0.687988C418.66 0.687988 422.5 1.66932 425.956 3.63198C429.454 5.59465 432.206 8.32532 434.212 11.824C436.26 15.28 437.284 19.184 437.284 23.536C437.284 27.9307 436.26 31.8773 434.212 35.376C432.206 38.832 429.454 41.5413 425.956 43.504C422.457 45.4667 418.617 46.448 414.436 46.448ZM414.436 38.448C417.124 38.448 419.492 37.8507 421.54 36.656C423.588 35.4187 425.188 33.6693 426.34 31.408C427.492 29.1467 428.068 26.5227 428.068 23.536C428.068 20.5493 427.492 17.9467 426.34 15.728C425.188 13.4667 423.588 11.7387 421.54 10.544C419.492 9.34932 417.124 8.75199 414.436 8.75199C411.748 8.75199 409.358 9.34932 407.268 10.544C405.22 11.7387 403.62 13.4667 402.468 15.728C401.316 17.9467 400.74 20.5493 400.74 23.536C400.74 26.5227 401.316 29.1467 402.468 31.408C403.62 33.6693 405.22 35.4187 407.268 36.656C409.358 37.8507 411.748 38.448 414.436 38.448Z" fill="black"/>
<path d="M7.71284 64.377C8.44051 64.5127 9.03867 64.8765 9.50734 65.4685C9.97601 66.0605 10.2103 66.7388 10.2103 67.5035C10.2103 68.1942 10.0377 68.8047 9.69234 69.335C9.35934 69.853 8.87217 70.26 8.23084 70.556C7.58951 70.852 6.83101 71 5.95534 71H0.386841V58.087H5.71484C6.59051 58.087 7.34284 58.2288 7.97184 58.5125C8.61317 58.7962 9.09417 59.1908 9.41484 59.6965C9.74784 60.2022 9.91434 60.7757 9.91434 61.417C9.91434 62.1693 9.71084 62.7983 9.30384 63.304C8.90917 63.8097 8.37884 64.1673 7.71284 64.377ZM2.97684 63.415H5.34484C5.96151 63.415 6.43634 63.2793 6.76934 63.008C7.10234 62.7243 7.26884 62.3235 7.26884 61.8055C7.26884 61.2875 7.10234 60.8867 6.76934 60.603C6.43634 60.3193 5.96151 60.1775 5.34484 60.1775H2.97684V63.415ZM5.58534 68.891C6.21434 68.891 6.70151 68.743 7.04684 68.447C7.40451 68.151 7.58334 67.7317 7.58334 67.189C7.58334 66.634 7.39834 66.2023 7.02834 65.894C6.65834 65.5733 6.15884 65.413 5.52984 65.413H2.97684V68.891H5.58534Z" fill="black"/>
<path d="M19.915 68.5395H14.772L13.921 71H11.2015L15.845 58.0685H18.8605L23.504 71H20.766L19.915 68.5395ZM19.212 66.4675L17.3435 61.0655L15.475 66.4675H19.212Z" fill="black"/>
<path d="M31.6222 71L28.7732 65.968H27.5522V71H24.9622V58.087H29.8092C30.8082 58.087 31.6592 58.2658 32.3622 58.6235C33.0652 58.9688 33.5894 59.4437 33.9347 60.048C34.2924 60.64 34.4712 61.306 34.4712 62.046C34.4712 62.897 34.2245 63.6678 33.7312 64.3585C33.2379 65.0368 32.504 65.5055 31.5297 65.7645L34.6192 71H31.6222ZM27.5522 64.0255H29.7167C30.4197 64.0255 30.9439 63.859 31.2892 63.526C31.6345 63.1807 31.8072 62.7058 31.8072 62.1015C31.8072 61.5095 31.6345 61.0532 31.2892 60.7325C30.9439 60.3995 30.4197 60.233 29.7167 60.233H27.5522V64.0255Z" fill="black"/>
<path d="M44.4543 68.5395H39.3113L38.4603 71H35.7408L40.3843 58.0685H43.3998L48.0433 71H45.3053L44.4543 68.5395ZM43.7513 66.4675L41.8828 61.0655L40.0143 66.4675H43.7513Z" fill="black"/>
<path d="M60.5459 71H57.956L52.0914 62.1385V71H49.5014V58.0685H52.0914L57.956 66.9485V58.0685H60.5459V71Z" fill="black"/>
<path d="M71.819 61.972C71.523 61.4293 71.116 61.0162 70.598 60.7325C70.08 60.4488 69.4756 60.307 68.785 60.307C68.0203 60.307 67.342 60.4797 66.75 60.825C66.158 61.1703 65.6955 61.6637 65.3625 62.305C65.0295 62.9463 64.863 63.6863 64.863 64.525C64.863 65.3883 65.0295 66.1407 65.3625 66.782C65.7078 67.4233 66.1826 67.9167 66.787 68.262C67.3913 68.6073 68.0943 68.78 68.896 68.78C69.8826 68.78 70.6905 68.521 71.3195 68.003C71.9485 67.4727 72.3616 66.7388 72.559 65.8015H68.1189V63.822H75.112V66.079C74.9393 66.9793 74.5693 67.8118 74.002 68.5765C73.4346 69.3412 72.7008 69.9578 71.8005 70.4265C70.9125 70.8828 69.9135 71.111 68.8035 71.111C67.5578 71.111 66.4293 70.8335 65.418 70.2785C64.419 69.7112 63.6296 68.928 63.05 67.929C62.4826 66.93 62.199 65.7953 62.199 64.525C62.199 63.2547 62.4826 62.12 63.05 61.121C63.6296 60.1097 64.419 59.3265 65.418 58.7715C66.4293 58.2042 67.5516 57.9205 68.785 57.9205C70.2403 57.9205 71.5045 58.2782 72.5775 58.9935C73.6505 59.6965 74.3905 60.6893 74.7975 61.972H71.819Z" fill="black"/>
<path d="M84.6686 68.5395H79.5257L78.6747 71H75.9551L80.5986 58.0685H83.6142L88.2577 71H85.5196L84.6686 68.5395ZM83.9657 66.4675L82.0971 61.0655L80.2286 66.4675H83.9657Z" fill="black"/>
<path d="M99.9833 58.087L95.6173 66.5045V71H93.0273V66.5045L88.6428 58.087H91.5658L94.3408 63.9885L97.0973 58.087H99.9833Z" fill="black"/>
<path d="M119.409 58.087V71H116.819V62.601L113.359 71H111.398L107.92 62.601V71H105.33V58.087H108.272L112.379 67.6885L116.486 58.087H119.409Z" fill="black"/>
<path d="M129.61 68.5395H124.467L123.616 71H120.896L125.54 58.0685H128.555L133.199 71H130.461L129.61 68.5395ZM128.907 66.4675L127.038 61.0655L125.17 66.4675H128.907Z" fill="black"/>
<path d="M145.702 71H143.112L137.247 62.1385V71H134.657V58.0685H137.247L143.112 66.9485V58.0685H145.702V71Z" fill="black"/>
<path d="M155.902 68.5395H150.759L149.908 71H147.188L151.832 58.0685H154.847L159.491 71H156.753L155.902 68.5395ZM155.199 66.4675L153.33 61.0655L151.462 66.4675H155.199Z" fill="black"/>
<path d="M169.94 61.972C169.644 61.4293 169.237 61.0162 168.719 60.7325C168.201 60.4488 167.596 60.307 166.906 60.307C166.141 60.307 165.463 60.4797 164.871 60.825C164.279 61.1703 163.816 61.6637 163.483 62.305C163.15 62.9463 162.984 63.6863 162.984 64.525C162.984 65.3883 163.15 66.1407 163.483 66.782C163.829 67.4233 164.303 67.9167 164.908 68.262C165.512 68.6073 166.215 68.78 167.017 68.78C168.003 68.78 168.811 68.521 169.44 68.003C170.069 67.4727 170.482 66.7388 170.68 65.8015H166.24V63.822H173.233V66.079C173.06 66.9793 172.69 67.8118 172.123 68.5765C171.555 69.3412 170.822 69.9578 169.921 70.4265C169.033 70.8828 168.034 71.111 166.924 71.111C165.679 71.111 164.55 70.8335 163.539 70.2785C162.54 69.7112 161.75 68.928 161.171 67.929C160.603 66.93 160.32 65.7953 160.32 64.525C160.32 63.2547 160.603 62.12 161.171 61.121C161.75 60.1097 162.54 59.3265 163.539 58.7715C164.55 58.2042 165.672 57.9205 166.906 57.9205C168.361 57.9205 169.625 58.2782 170.698 58.9935C171.771 59.6965 172.511 60.6893 172.918 61.972H169.94Z" fill="black"/>
<path d="M177.461 60.1775V63.415H181.809V65.4685H177.461V68.891H182.364V71H174.871V58.0685H182.364V60.1775H177.461Z" fill="black"/>
<path d="M198.519 58.087V71H195.929V62.601L192.469 71H190.508L187.03 62.601V71H184.44V58.087H187.382L191.489 67.6885L195.596 58.087H198.519Z" fill="black"/>
<path d="M203.392 60.1775V63.415H207.739V65.4685H203.392V68.891H208.294V71H200.802V58.0685H208.294V60.1775H203.392Z" fill="black"/>
<path d="M221.415 71H218.825L212.961 62.1385V71H210.371V58.0685H212.961L218.825 66.9485V58.0685H221.415V71Z" fill="black"/>
<path d="M232.485 58.087V60.1775H229.044V71H226.454V60.1775H223.013V58.087H232.485Z" fill="black"/>
<path d="M240.817 58.087V71H238.227V58.087H240.817Z" fill="black"/>
<path d="M254.143 71H251.553L245.689 62.1385V71H243.099V58.0685H245.689L251.553 66.9485V58.0685H254.143V71Z" fill="black"/>
<path d="M264.399 58.087V60.1775H259.015V63.489H263.141V65.5425H259.015V71H256.425V58.087H264.399Z" fill="black"/>
<path d="M271.952 71.1295C270.743 71.1295 269.633 70.8458 268.622 70.2785C267.611 69.7112 266.809 68.928 266.217 67.929C265.625 66.9177 265.329 65.7768 265.329 64.5065C265.329 63.2485 265.625 62.12 266.217 61.121C266.809 60.1097 267.611 59.3203 268.622 58.753C269.633 58.1857 270.743 57.902 271.952 57.902C273.173 57.902 274.283 58.1857 275.282 58.753C276.293 59.3203 277.089 60.1097 277.668 61.121C278.26 62.12 278.556 63.2485 278.556 64.5065C278.556 65.7768 278.26 66.9177 277.668 67.929C277.089 68.928 276.293 69.7112 275.282 70.2785C274.271 70.8458 273.161 71.1295 271.952 71.1295ZM271.952 68.817C272.729 68.817 273.413 68.6443 274.005 68.299C274.597 67.9413 275.06 67.4357 275.393 66.782C275.726 66.1283 275.892 65.3698 275.892 64.5065C275.892 63.6432 275.726 62.8908 275.393 62.2495C275.06 61.5958 274.597 61.0963 274.005 60.751C273.413 60.4057 272.729 60.233 271.952 60.233C271.175 60.233 270.484 60.4057 269.88 60.751C269.288 61.0963 268.825 61.5958 268.492 62.2495C268.159 62.8908 267.993 63.6432 267.993 64.5065C267.993 65.3698 268.159 66.1283 268.492 66.782C268.825 67.4357 269.288 67.9413 269.88 68.299C270.484 68.6443 271.175 68.817 271.952 68.817Z" fill="black"/>
<path d="M286.866 71L284.017 65.968H282.796V71H280.206V58.087H285.053C286.052 58.087 286.903 58.2658 287.606 58.6235C288.309 58.9688 288.833 59.4437 289.178 60.048C289.536 60.64 289.715 61.306 289.715 62.046C289.715 62.897 289.468 63.6678 288.975 64.3585C288.482 65.0368 287.748 65.5055 286.773 65.7645L289.863 71H286.866ZM282.796 64.0255H284.96C285.663 64.0255 286.188 63.859 286.533 63.526C286.878 63.1807 287.051 62.7058 287.051 62.1015C287.051 61.5095 286.878 61.0532 286.533 60.7325C286.188 60.3995 285.663 60.233 284.96 60.233H282.796V64.0255Z" fill="black"/>
<path d="M305.858 58.087V71H303.268V62.601L299.809 71H297.848L294.37 62.601V71H291.78V58.087H294.721L298.828 67.6885L302.935 58.087H305.858Z" fill="black"/>
<path d="M316.06 68.5395H310.917L310.066 71H307.346L311.99 58.0685H315.005L319.649 71H316.911L316.06 68.5395ZM315.357 66.4675L313.488 61.0655L311.62 66.4675H315.357Z" fill="black"/>
<path d="M329.894 58.087V60.1775H326.453V71H323.863V60.1775H320.422V58.087H329.894Z" fill="black"/>
<path d="M334.097 58.087V71H331.507V58.087H334.097Z" fill="black"/>
<path d="M342.372 71.1295C341.163 71.1295 340.053 70.8458 339.042 70.2785C338.031 69.7112 337.229 68.928 336.637 67.929C336.045 66.9177 335.749 65.7768 335.749 64.5065C335.749 63.2485 336.045 62.12 336.637 61.121C337.229 60.1097 338.031 59.3203 339.042 58.753C340.053 58.1857 341.163 57.902 342.372 57.902C343.593 57.902 344.703 58.1857 345.702 58.753C346.713 59.3203 347.509 60.1097 348.088 61.121C348.68 62.12 348.976 63.2485 348.976 64.5065C348.976 65.7768 348.68 66.9177 348.088 67.929C347.509 68.928 346.713 69.7112 345.702 70.2785C344.691 70.8458 343.581 71.1295 342.372 71.1295ZM342.372 68.817C343.149 68.817 343.833 68.6443 344.425 68.299C345.017 67.9413 345.48 67.4357 345.813 66.782C346.146 66.1283 346.312 65.3698 346.312 64.5065C346.312 63.6432 346.146 62.8908 345.813 62.2495C345.48 61.5958 345.017 61.0963 344.425 60.751C343.833 60.4057 343.149 60.233 342.372 60.233C341.595 60.233 340.904 60.4057 340.3 60.751C339.708 61.0963 339.245 61.5958 338.912 62.2495C338.579 62.8908 338.413 63.6432 338.413 64.5065C338.413 65.3698 338.579 66.1283 338.912 66.782C339.245 67.4357 339.708 67.9413 340.3 68.299C340.904 68.6443 341.595 68.817 342.372 68.817Z" fill="black"/>
<path d="M361.67 71H359.08L353.216 62.1385V71H350.626V58.0685H353.216L359.08 66.9485V58.0685H361.67V71Z" fill="black"/>
<path d="M372.542 71.1295C371.641 71.1295 370.827 70.9753 370.099 70.667C369.384 70.3587 368.817 69.9147 368.397 69.335C367.978 68.7553 367.762 68.0708 367.75 67.2815H370.525C370.562 67.8118 370.747 68.2312 371.08 68.5395C371.425 68.8478 371.894 69.002 372.486 69.002C373.09 69.002 373.565 68.8602 373.91 68.5765C374.256 68.2805 374.428 67.8982 374.428 67.4295C374.428 67.0472 374.311 66.7327 374.077 66.486C373.843 66.2393 373.547 66.0482 373.189 65.9125C372.844 65.7645 372.363 65.6042 371.746 65.4315C370.907 65.1848 370.223 64.9443 369.693 64.71C369.175 64.4633 368.724 64.0995 368.342 63.6185C367.972 63.1252 367.787 62.4715 367.787 61.6575C367.787 60.8928 367.978 60.2268 368.361 59.6595C368.743 59.0922 369.279 58.6605 369.97 58.3645C370.661 58.0562 371.45 57.902 372.338 57.902C373.67 57.902 374.749 58.2288 375.576 58.8825C376.414 59.5238 376.877 60.4242 376.963 61.5835H374.114C374.089 61.1395 373.898 60.7757 373.54 60.492C373.195 60.196 372.733 60.048 372.153 60.048C371.647 60.048 371.24 60.1775 370.932 60.4365C370.636 60.6955 370.488 61.0717 370.488 61.565C370.488 61.9103 370.599 62.2002 370.821 62.4345C371.055 62.6565 371.339 62.8415 371.672 62.9895C372.017 63.1252 372.498 63.2855 373.115 63.4705C373.954 63.7172 374.638 63.9638 375.168 64.2105C375.699 64.4572 376.155 64.8272 376.538 65.3205C376.92 65.8138 377.111 66.4613 377.111 67.263C377.111 67.9537 376.932 68.595 376.574 69.187C376.217 69.779 375.693 70.2538 375.002 70.6115C374.311 70.9568 373.491 71.1295 372.542 71.1295Z" fill="black"/>
<path d="M389.346 58.087L384.98 66.5045V71H382.39V66.5045L378.006 58.087H380.929L383.704 63.9885L386.46 58.087H389.346Z" fill="black"/>
<path d="M395.021 71.1295C394.121 71.1295 393.307 70.9753 392.579 70.667C391.864 70.3587 391.297 69.9147 390.877 69.335C390.458 68.7553 390.242 68.0708 390.23 67.2815H393.005C393.042 67.8118 393.227 68.2312 393.56 68.5395C393.905 68.8478 394.374 69.002 394.966 69.002C395.57 69.002 396.045 68.8602 396.39 68.5765C396.736 68.2805 396.908 67.8982 396.908 67.4295C396.908 67.0472 396.791 66.7327 396.557 66.486C396.322 66.2393 396.026 66.0482 395.669 65.9125C395.323 65.7645 394.842 65.6042 394.226 65.4315C393.387 65.1848 392.703 64.9443 392.172 64.71C391.654 64.4633 391.204 64.0995 390.822 63.6185C390.452 63.1252 390.267 62.4715 390.267 61.6575C390.267 60.8928 390.458 60.2268 390.84 59.6595C391.223 59.0922 391.759 58.6605 392.45 58.3645C393.14 58.0562 393.93 57.902 394.818 57.902C396.15 57.902 397.229 58.2288 398.055 58.8825C398.894 59.5238 399.356 60.4242 399.443 61.5835H396.594C396.569 61.1395 396.378 60.7757 396.02 60.492C395.675 60.196 395.212 60.048 394.633 60.048C394.127 60.048 393.72 60.1775 393.412 60.4365C393.116 60.6955 392.968 61.0717 392.968 61.565C392.968 61.9103 393.079 62.2002 393.301 62.4345C393.535 62.6565 393.819 62.8415 394.152 62.9895C394.497 63.1252 394.978 63.2855 395.595 63.4705C396.433 63.7172 397.118 63.9638 397.648 64.2105C398.178 64.4572 398.635 64.8272 399.017 65.3205C399.4 65.8138 399.591 66.4613 399.591 67.263C399.591 67.9537 399.412 68.595 399.054 69.187C398.697 69.779 398.172 70.2538 397.482 70.6115C396.791 70.9568 395.971 71.1295 395.021 71.1295Z" fill="black"/>
<path d="M410.346 58.087V60.1775H406.905V71H404.315V60.1775H400.874V58.087H410.346Z" fill="black"/>
<path d="M414.548 60.1775V63.415H418.896V65.4685H414.548V68.891H419.451V71H411.958V58.0685H419.451V60.1775H414.548Z" fill="black"/>
<path d="M435.606 58.087V71H433.016V62.601L429.556 71H427.595L424.117 62.601V71H421.527V58.087H424.469L428.576 67.6885L432.683 58.087H435.606Z" fill="black"/>
</svg>
